<?xml version="1.0" encoding="UTF-8" standalone="no"?>
<!-- Created with Inkscape (http://www.inkscape.org/) -->

<svg
   width="512"
   height="96"
   viewBox="0 0 135.46667 25.399998"
   version="1.1"
   id="svg1"
   inkscape:version="1.3 (0e150ed6c4, 2023-07-21)"
   sodipodi:docname="puzzlepiece.svg"
   xmlns:inkscape="http://www.inkscape.org/namespaces/inkscape"
   xmlns:sodipodi="http://sodipodi.sourceforge.net/DTD/sodipodi-0.dtd"
   xmlns="http://www.w3.org/2000/svg"
   xmlns:svg="http://www.w3.org/2000/svg">
  <sodipodi:namedview
     id="namedview1"
     pagecolor="#ffffff"
     bordercolor="#000000"
     borderopacity="0.25"
     inkscape:showpageshadow="2"
     inkscape:pageopacity="0.0"
     inkscape:pagecheckerboard="0"
     inkscape:deskcolor="#d1d1d1"
     inkscape:document-units="mm"
     inkscape:zoom="0.72426345"
     inkscape:cx="321.70614"
     inkscape:cy="3.4517826"
     inkscape:window-width="1920"
     inkscape:window-height="1009"
     inkscape:window-x="-8"
     inkscape:window-y="-8"
     inkscape:window-maximized="1"
     inkscape:current-layer="layer1"
     showgrid="false" />
  <defs
     id="defs1" />
  <g
     inkscape:label="Layer 1"
     inkscape:groupmode="layer"
     id="layer1"
     transform="translate(-19.627745,-135.86942)">
    <path
       d="m 39.114609,153.53127 c -1.582048,0.0479 -2.157324,-1.98954 -1.030727,-3.16408 l 0.167788,-0.16779 c 1.174558,-1.12659 3.259967,-0.59924 3.212023,0.9828 -0.02409,0.91087 1.054682,2.0135 1.701891,1.36629 l 2.732619,-2.7326 -4.074964,-4.07496 c -0.647193,-0.64719 0.45545,-1.72585 1.366317,-1.70188 1.582032,0.0479 2.109381,-2.03748 0.982784,-3.21203 l -0.167788,-0.16778 c -1.174542,-1.12659 -3.212006,-0.55132 -3.164062,1.03073 0.02392,0.91087 -1.0547,2.01349 -1.701892,1.36631 l -4.074946,-4.07496 -2.756591,2.7326 c -0.647192,0.64722 0.455434,1.72587 1.366318,1.70191 1.582031,-0.0479 2.157325,1.98953 1.03071,3.16406 l -0.167788,0.1678 c -1.174541,1.12661 -3.259967,0.59924 -3.212023,-0.98279 0.02392,-0.91087 -1.054682,-2.01351 -1.701874,-1.3663 l -2.900405,2.92436 4.07493,4.07497 c 0.647208,0.6472 -0.455417,1.72584 -1.366283,1.70187 -1.582048,-0.0479 -2.109398,2.03748 -0.982783,3.21203 l 0.167786,0.16779 c 1.174542,1.12659 3.212006,0.5513 3.164062,-1.03073 -0.02392,-0.91089 1.0547,-2.01351 1.701892,-1.36633 l 4.074947,4.07496 2.924377,-2.92439 c 0.647193,-0.64719 -0.431462,-1.72585 -1.366301,-1.70187 z"
       fill="#003c70"
       id="path1"
       style="fill:#205ea6;stroke-width:0.239702" />
    <path
       d="m 52.904541,156.92745 v -12.53998 h 1.391285 q 0.221131,0 0.377766,0.10135 0.156635,0.10136 0.202704,0.31326 l 0.184276,0.87532 q 0.571256,-0.65418 1.308361,-1.05959 0.746318,-0.4054 1.741409,-0.4054 0.773961,0 1.409713,0.32248 0.644967,0.32249 1.105657,0.93981 0.469905,0.6081 0.718677,1.51106 0.257987,0.89374 0.257987,2.05468 0,1.05959 -0.285628,1.96254 -0.285629,0.90295 -0.820029,1.56635 -0.525188,0.66339 -1.28072,1.04116 -0.746318,0.36855 -1.676913,0.36855 -0.801601,0 -1.363643,-0.23956 -0.552829,-0.24877 -0.995092,-0.68182 v 3.86979 z m 4.422628,-10.91836 q -0.709464,0 -1.216223,0.30406 -0.497545,0.29484 -0.930595,0.83845 v 4.23836 q 0.386981,0.47912 0.838457,0.67261 0.46069,0.18427 0.985877,0.18427 0.515974,0 0.930595,-0.19349 0.423835,-0.19349 0.709463,-0.58968 0.294842,-0.39619 0.451477,-0.99509 0.156635,-0.60811 0.156635,-1.42814 0,-0.82925 -0.138207,-1.4005 -0.128994,-0.58047 -0.377767,-0.93981 -0.248772,-0.35934 -0.608111,-0.52518 -0.350124,-0.16586 -0.801601,-0.16586 z m 8.080514,-1.62163 v 6.0074 q 0,0.86611 0.396194,1.34522 0.405407,0.46991 1.207009,0.46991 0.589684,0 1.105657,-0.25799 0.515973,-0.2672 0.976663,-0.72789 v -6.83665 h 2.275811 v 9.45337 h -1.391285 q -0.442263,0 -0.58047,-0.41462 l -0.156634,-0.75553 q -0.294842,0.29484 -0.608112,0.54361 -0.313269,0.23956 -0.672608,0.41463 -0.350124,0.16584 -0.764746,0.25798 -0.405408,0.10135 -0.875311,0.10135 -0.773961,0 -1.372858,-0.25798 -0.589684,-0.26721 -0.995092,-0.74632 -0.405407,-0.47912 -0.617325,-1.1333 -0.202703,-0.66339 -0.202703,-1.45579 v -6.0074 z m 15.230435,0.93981 q 0,0.23956 -0.09214,0.46991 -0.08293,0.22113 -0.202704,0.37777 l -4.496338,5.91526 h 4.662186 v 1.75062 h -7.306549 v -0.94902 q 0,-0.15664 0.07371,-0.36855 0.07371,-0.22113 0.230345,-0.41462 l 4.533195,-5.97977 h -4.570049 v -1.74141 h 7.168342 z m 8.65176,0 q 0,0.23956 -0.09214,0.46991 -0.08292,0.22113 -0.202703,0.37777 l -4.496337,5.91526 h 4.662183 v 1.75062 h -7.306546 v -0.94902 q 0,-0.15664 0.07371,-0.36855 0.07371,-0.22113 0.230345,-0.41462 l 4.533194,-5.97977 h -4.570052 v -1.74141 h 7.168344 z m 4.238347,-5.17816 v 13.69172 h -2.275814 v -13.69172 z m 6.477295,4.09093 q 0.89375,0 1.64006,0.28563 0.75554,0.28563 1.29915,0.83846 0.54361,0.54361 0.84768,1.34522 0.30405,0.79239 0.30405,1.81512 0,0.25799 -0.0276,0.43306 -0.0184,0.16584 -0.0829,0.26719 -0.0553,0.0921 -0.15663,0.13821 -0.10135,0.0369 -0.25799,0.0369 h -5.841552 q 0.101351,1.45577 0.783173,2.13758 0.681821,0.68182 1.805909,0.68182 0.55283,0 0.94902,-0.12899 0.40541,-0.12898 0.70025,-0.28561 0.30406,-0.15665 0.52519,-0.28564 0.23034,-0.12899 0.44226,-0.12899 0.13821,0 0.23956,0.0553 0.10135,0.0553 0.17506,0.15664 l 0.6634,0.82924 q -0.37777,0.44226 -0.84768,0.74632 -0.4699,0.29484 -0.98587,0.47912 -0.50676,0.17506 -1.04116,0.24877 -0.52519,0.0738 -1.02274,0.0738 -0.985872,0 -1.833548,-0.32248 -0.847668,-0.33171 -1.474205,-0.96746 -0.626536,-0.64497 -0.985875,-1.58477 -0.359339,-0.94902 -0.359339,-2.1929 0,-0.96744 0.313264,-1.81511 0.313272,-0.85689 0.893742,-1.48342 0.58968,-0.63576 1.428138,-1.00432 0.847676,-0.36854 1.907253,-0.36854 z m 0.046,1.63085 q -0.995094,0 -1.557136,0.56205 -0.562042,0.56205 -0.718678,1.59398 h 4.275214 q 0,-0.44226 -0.11978,-0.82924 -0.11978,-0.39619 -0.36856,-0.69103 -0.24876,-0.29485 -0.62653,-0.46069 -0.37777,-0.17507 -0.88453,-0.17507 z m 5.89685,11.05656 v -12.53998 h 1.39128 q 0.22113,0 0.37776,0.10135 0.15664,0.10136 0.20271,0.31326 l 0.18427,0.87532 q 0.57126,-0.65418 1.30837,-1.05959 0.74631,-0.4054 1.74141,-0.4054 0.77395,0 1.40971,0.32248 0.64496,0.32249 1.10565,0.93981 0.46991,0.6081 0.71868,1.51106 0.25799,0.89374 0.25799,2.05468 0,1.05959 -0.28563,1.96254 -0.28563,0.90295 -0.82003,1.56635 -0.52519,0.66339 -1.28072,1.04116 -0.74632,0.36855 -1.67691,0.36855 -0.8016,0 -1.36364,-0.23956 -0.55284,-0.24877 -0.9951,-0.68182 v 3.86979 z m 4.42262,-10.91836 q -0.70946,0 -1.21622,0.30406 -0.49755,0.29484 -0.9306,0.83845 v 4.23836 q 0.38699,0.47912 0.83846,0.67261 0.46069,0.18427 0.98587,0.18427 0.51598,0 0.9306,-0.19349 0.42384,-0.19349 0.70946,-0.58968 0.29485,-0.39619 0.45148,-0.99509 0.15664,-0.60811 0.15664,-1.42814 0,-0.82925 -0.13821,-1.4005 -0.129,-0.58047 -0.37777,-0.93981 -0.24877,-0.35934 -0.60811,-0.52518 -0.35012,-0.16586 -0.8016,-0.16586 z m 8.42142,-1.62163 v 9.45337 h -2.2758 v -9.45337 z m 0.34091,-2.75492 q 0,0.29484 -0.11978,0.55282 -0.11978,0.25799 -0.32248,0.45148 -0.19349,0.19349 -0.46069,0.31327 -0.2672,0.11056 -0.57125,0.11056 -0.29485,0 -0.56204,-0.11056 -0.25799,-0.11978 -0.45148,-0.31327 -0.1935,-0.19349 -0.31328,-0.45148 -0.11056,-0.25798 -0.11056,-0.55282 0,-0.30406 0.11056,-0.57126 0.11978,-0.2672 0.31328,-0.46069 0.19349,-0.19349 0.45148,-0.30406 0.26719,-0.11977 0.56204,-0.11977 0.30405,0 0.57125,0.11977 0.2672,0.11057 0.46069,0.30406 0.2027,0.19349 0.32248,0.46069 0.11978,0.2672 0.11978,0.57126 z m 6.1364,2.6075 q 0.89374,0 1.64006,0.28563 0.75553,0.28563 1.29914,0.83846 0.54363,0.54361 0.84768,1.34521 0.30405,0.79239 0.30405,1.81512 0,0.25799 -0.0276,0.43306 -0.0184,0.16584 -0.0829,0.26719 -0.0553,0.0921 -0.15663,0.13821 -0.10135,0.0369 -0.25799,0.0369 h -5.84155 q 0.10135,1.45577 0.78317,2.13759 0.68182,0.68182 1.8059,0.68182 0.55284,0 0.94903,-0.12899 0.40541,-0.12899 0.70025,-0.28562 0.30405,-0.15664 0.52519,-0.28564 0.23034,-0.12899 0.44226,-0.12899 0.13821,0 0.23956,0.0553 0.10135,0.0553 0.17506,0.15664 l 0.6634,0.82924 q -0.37777,0.44226 -0.84768,0.74632 -0.4699,0.29484 -0.98588,0.47912 -0.50675,0.17506 -1.04116,0.24877 -0.52518,0.0738 -1.02273,0.0738 -0.98587,0 -1.83354,-0.32248 -0.84768,-0.3317 -1.47422,-0.96745 -0.62653,-0.64497 -0.98587,-1.58477 -0.35934,-0.94903 -0.35934,-2.1929 0,-0.96744 0.31327,-1.81511 0.31327,-0.85689 0.89374,-1.48342 0.58969,-0.63576 1.42813,-1.00432 0.84768,-0.36854 1.90727,-0.36854 z m 0.046,1.63084 q -0.99509,0 -1.55713,0.56205 -0.56204,0.56205 -0.71868,1.59399 h 4.27521 q 0,-0.44226 -0.11978,-0.82924 -0.11978,-0.3962 -0.36855,-0.69104 -0.24877,-0.29485 -0.62654,-0.46069 -0.37777,-0.17507 -0.88453,-0.17507 z m 12.54,0.51598 q -0.10135,0.129 -0.20271,0.2027 -0.0921,0.0738 -0.2764,0.0738 -0.17507,0 -0.34091,-0.10135 -0.16586,-0.11057 -0.3962,-0.23956 -0.23035,-0.13821 -0.55283,-0.23956 -0.31327,-0.11056 -0.78317,-0.11056 -0.5989,0 -1.05037,0.22113 -0.45149,0.21191 -0.75554,0.61732 -0.29484,0.40541 -0.44226,0.98588 -0.14743,0.57125 -0.14743,1.29914 0,0.75553 0.15664,1.34522 0.16585,0.58968 0.46991,0.99509 0.30405,0.39619 0.7371,0.60811 0.43305,0.20271 0.97666,0.20271 0.54361,0 0.87532,-0.12899 0.34091,-0.13821 0.57126,-0.29484 0.23034,-0.16585 0.39618,-0.29484 0.17507,-0.13821 0.38699,-0.13821 0.27641,0 0.41461,0.21192 l 0.65419,0.82924 q -0.37777,0.44226 -0.82003,0.74632 -0.44226,0.29484 -0.92138,0.47912 -0.4699,0.17506 -0.97667,0.24877 -0.50676,0.0737 -1.0043,0.0737 -0.87532,0 -1.64927,-0.32248 -0.77396,-0.33169 -1.35443,-0.95824 -0.57126,-0.62654 -0.91217,-1.52949 -0.3317,-0.91217 -0.3317,-2.07312 0,-1.04115 0.29485,-1.92568 0.30405,-0.89374 0.88452,-1.53871 0.58047,-0.65418 1.43736,-1.02273 0.85688,-0.36855 1.97175,-0.36855 1.05959,0 1.85198,0.34092 0.8016,0.34091 1.43735,0.97666 z m 6.05346,-2.14682 q 0.89373,0 1.64006,0.28563 0.75552,0.28563 1.29914,0.83846 0.54362,0.54361 0.84767,1.34522 0.30406,0.79239 0.30406,1.81512 0,0.25799 -0.0276,0.43306 -0.0184,0.16584 -0.0829,0.26719 -0.0553,0.0921 -0.15663,0.13821 -0.10136,0.0369 -0.25798,0.0369 h -5.84156 q 0.10135,1.45577 0.78317,2.13758 0.68182,0.68182 1.80591,0.68182 0.55283,0 0.94902,-0.12899 0.40541,-0.12898 0.70025,-0.28561 0.30406,-0.15665 0.52519,-0.28564 0.23034,-0.12899 0.44226,-0.12899 0.13821,0 0.23956,0.0553 0.10135,0.0553 0.17506,0.15664 l 0.6634,0.82924 q -0.37777,0.44226 -0.84768,0.74632 -0.4699,0.29484 -0.98587,0.47912 -0.50676,0.17506 -1.04116,0.24877 -0.52519,0.0738 -1.02274,0.0738 -0.98587,0 -1.83354,-0.32248 -0.84768,-0.33171 -1.47421,-0.96746 -0.62654,-0.64497 -0.98588,-1.58477 -0.35934,-0.94902 -0.35934,-2.1929 0,-0.96744 0.31327,-1.81511 0.31327,-0.85689 0.89374,-1.48342 0.58969,-0.63576 1.42814,-1.00432 0.84767,-0.36854 1.90726,-0.36854 z m 0.0461,1.63085 q -0.99509,0 -1.55714,0.56205 -0.56204,0.56205 -0.71867,1.59398 h 4.27521 q 0,-0.44226 -0.11978,-0.82924 -0.11978,-0.39619 -0.36856,-0.69103 -0.24877,-0.29485 -0.62654,-0.46069 -0.37776,-0.17507 -0.88452,-0.17507 z"
       id="text1"
       style="font-weight:bold;font-size:22.2892px;line-height:26.97px;font-family:Lato;-inkscape-font-specification:'Lato Bold';fill:#205ea6;stroke-width:2.34952;stroke-linecap:round;stroke-linejoin:round;paint-order:markers stroke fill"
       aria-label="puzzlepiece" />
  </g>
</svg>
